HIERARCHY
ROOT Hips
{
	OFFSET 34.506699 -1.649406 99.928497
	CHANNELS 6 Xposition Yposition Zposition Xrotation Yrotation Zrotation
	JOINT spine
	{
		OFFSET 0.000000 -0.507025 8.817047
		CHANNELS 3 Xrotation Yrotation Zrotation
		JOINT spine1
		{
			OFFSET 0.000000 -0.000002 10.776596
			CHANNELS 3 Xrotation Yrotation Zrotation
			JOINT spine2
			{
				OFFSET 0.000000 -0.000002 10.325897
				CHANNELS 3 Xrotation Yrotation Zrotation
				JOINT Neck
				{
					OFFSET 0.000000 -1.263954 26.511002
					CHANNELS 3 Xrotation Yrotation Zrotation
					JOINT Head
					{
						OFFSET 0.000000 -0.000001 8.009659
						CHANNELS 3 Xrotation Yrotation Zrotation
						End Site
						{
							OFFSET 0.000000 6.393857 19.387894
						}
					}
				}
				JOINT RightShoulder
				{
					OFFSET -4.347950 0.605420 11.151199
					CHANNELS 3 Xrotation Yrotation Zrotation
					JOINT RightArm
					{
						OFFSET 0.000000 -0.000002 14.625793
						CHANNELS 3 Xrotation Yrotation Zrotation
						JOINT RightArmRoll
						{
							OFFSET 0.000000 -0.000001 7.383392
							CHANNELS 3 Xrotation Yrotation Zrotation
							JOINT RightForeArm
							{
								OFFSET 0.000000 -0.000003 21.505203
								CHANNELS 3 Xrotation Yrotation Zrotation
								JOINT RightForeArmRoll
								{
									OFFSET 0.000000 -0.000001 8.285324
									CHANNELS 3 Xrotation Yrotation Zrotation
									JOINT RightHand
									{
										OFFSET 0.000000 -0.000003 16.626801
										CHANNELS 3 Xrotation Yrotation Zrotation
										End Site
										{
											OFFSET 0.000000 0.000000 0.100006
										}
									}
								}
							}
						}
					}
				}
				JOINT LeftShoulder
				{
					OFFSET 4.347950 0.605420 11.151199
					CHANNELS 3 Xrotation Yrotation Zrotation
					JOINT LeftArm
					{
						OFFSET 0.000000 -0.000002 14.625793
						CHANNELS 3 Xrotation Yrotation Zrotation
						JOINT LeftArmRoll
						{
							OFFSET 0.000000 -0.000001 7.383392
							CHANNELS 3 Xrotation Yrotation Zrotation
							JOINT LeftForeArm
							{
								OFFSET 0.000000 -0.000003 21.505203
								CHANNELS 3 Xrotation Yrotation Zrotation
								JOINT LeftForeArmRoll
								{
									OFFSET 0.000000 -0.000001 8.285324
									CHANNELS 3 Xrotation Yrotation Zrotation
									JOINT LeftHand
									{
										OFFSET 0.000000 -0.000003 16.626801
										CHANNELS 3 Xrotation Yrotation Zrotation
										End Site
										{
											OFFSET 0.000000 0.000000 0.100006
										}
									}
								}
							}
						}
					}
				}
			}
		}
	}
	JOINT RightUpLeg
	{
		OFFSET -7.815100 1.202170 -1.433090
		CHANNELS 3 Xrotation Yrotation Zrotation
		JOINT RightUpLegRoll
		{
			OFFSET 0.000000 -0.000003 19.495895
			CHANNELS 3 Xrotation Yrotation Zrotation
			JOINT RightLeg
			{
				OFFSET 0.000000 0.000004 -24.142700
				CHANNELS 3 Xrotation Yrotation Zrotation
				JOINT RightLegRoll
				{
					OFFSET 0.000000 -0.000004 24.221703
					CHANNELS 3 Xrotation Yrotation Zrotation
					JOINT RightFoot
					{
						OFFSET 0.000000 -0.000003 20.160500
						CHANNELS 3 Xrotation Yrotation Zrotation
						JOINT RightToeBase
						{
							OFFSET 0.000000 -0.000003 16.853195
							CHANNELS 3 Xrotation Yrotation Zrotation
							End Site
							{
								OFFSET 0.007143 0.940779 8.161865
							}
						}
					}
				}
			}
		}
	}
	JOINT LeftUpLeg
	{
		OFFSET 7.815102 1.202170 -1.433090
		CHANNELS 3 Xrotation Yrotation Zrotation
		JOINT LeftUpLegRoll
		{
			OFFSET 0.000000 -0.000003 19.496002
			CHANNELS 3 Xrotation Yrotation Zrotation
			JOINT LeftLeg
			{
				OFFSET 0.000000 -0.000004 24.142593
				CHANNELS 3 Xrotation Yrotation Zrotation
				JOINT LeftLegRoll
				{
					OFFSET 0.000000 -0.000004 24.445602
					CHANNELS 3 Xrotation Yrotation Zrotation
					JOINT LeftFoot
					{
						OFFSET 0.000000 -0.000003 19.936600
						CHANNELS 3 Xrotation Yrotation Zrotation
						JOINT LeftToeBase
						{
							OFFSET 0.000000 -0.000003 16.853195
							CHANNELS 3 Xrotation Yrotation Zrotation
							End Site
							{
								OFFSET -0.032013 0.940779 8.161865
							}
						}
					}
				}
			}
		}
	}
}
MOTION
Frames: 7
Frame Time: 0.041667
50.872200 -9.159686 99.291595 7.791661 0.211385 0.610267 -1.611534 -0.320865 0.215261 0.780924 -0.636617 0.423777 2.426027 -0.631499 0.431374 11.831221 4.153493 1.093517 3.296052 1.714980 0.761474 -13.976972 -63.729831 -16.678058 -45.086857 -121.073627 -43.622000 -0.000002 0.000004 -0.000000 13.130342 -19.775192 2.360727 -0.000002 -0.000017 -3.005770 -5.000144 -7.999273 0.000125 -4.875529 65.262458 6.362301 -36.185676 114.760101 24.295806 -0.000000 0.000001 0.000001 7.042460 7.331890 0.306878 0.000001 -0.000019 3.000739 -5.000194 7.999044 -0.000105 -18.590629 -177.479570 -1.407910 -179.999991 0.000005 -0.803007 162.930666 -2.019997 -1.129101 -0.000004 -0.000001 0.199584 70.674085 6.528364 2.995737 25.456537 -7.345362 -0.000569 -20.362010 176.501541 1.677588 -0.000004 -0.000004 -0.907795 -21.036351 3.684983 1.352333 -0.000003 0.000006 -0.321341 71.030511 -6.808747 -2.193234 26.623726 7.343387 -0.761458 
50.726299 -9.080876 99.245689 7.933105 0.278916 0.596514 -1.606855 -0.327439 0.217499 0.790317 -0.650428 0.427134 2.435414 -0.645268 0.434896 11.600509 4.073238 1.109980 3.392183 1.737592 0.766072 -14.038582 -63.764290 -16.749951 -45.164185 -121.138678 -43.423177 -0.000000 0.000003 -0.000000 13.078994 -19.572903 2.306461 -0.000002 -0.000016 -3.005770 -5.000145 -7.999274 0.000124 -4.971933 65.114953 6.459728 -36.039838 114.914764 24.103792 -0.000000 -0.000000 0.000001 7.078228 7.247422 0.314285 0.000002 -0.000019 3.000739 -5.000194 7.999043 -0.000104 -18.969011 -177.582637 -1.462632 -179.999991 0.000005 -0.803007 162.557273 -2.004471 -1.144666 -0.000005 -0.000000 0.210030 70.820941 6.542316 2.952186 25.455521 -7.345360 -0.002108 -20.771642 176.371508 1.590342 -0.000004 -0.000005 -0.907028 -21.448442 3.724858 1.379846 -0.000003 0.000006 -0.329432 71.143011 -6.805597 -2.194732 26.652225 7.343405 -0.762636 
50.785599 -9.018965 99.185097 8.075548 0.347217 0.584101 -1.602555 -0.334167 0.219950 0.798957 -0.664576 0.430846 2.444063 -0.659370 0.438778 11.370656 3.991955 1.124280 3.489050 1.759165 0.769322 -14.102123 -63.799650 -16.824108 -45.238204 -121.199917 -43.224360 0.000000 0.000003 -0.000000 13.032798 -19.372826 2.253857 0.000002 -0.000015 -3.005771 -5.000144 -7.999274 0.000125 -5.059173 64.966266 6.546425 -35.891118 115.070533 23.910913 0.000000 0.000000 -0.000001 7.116353 7.164081 0.321602 0.000002 -0.000019 3.000739 -5.000192 7.999043 -0.000103 -19.346270 -177.687262 -1.517725 -179.999991 0.000005 -0.803007 162.188921 -1.987052 -1.160251 -0.000004 -0.000000 0.220468 70.966656 6.556723 2.906946 25.454008 -7.345353 -0.004409 -21.182179 176.239603 1.506585 -0.000004 -0.000004 -0.906393 -21.857749 3.763301 1.408291 -0.000004 0.000006 -0.337616 71.253360 -6.802485 -2.196676 26.679706 7.343439 -0.764354 
50.724899 -8.941906 99.130791 8.218718 0.416049 0.572519 -1.598518 -0.341004 0.222551 0.807074 -0.678961 0.434811 2.452170 -0.673705 0.442913 11.141564 3.909942 1.136848 3.586432 1.780009 0.771609 -14.167109 -63.835665 -16.899930 -45.309368 -121.258794 -43.024844 0.000000 0.000003 -0.000000 12.990401 -19.174201 2.202504 0.000001 -0.000015 -3.005771 -5.000143 -7.999271 0.000124 -5.139809 64.816719 6.625411 -35.740160 115.227614 23.717074 0.000001 0.000000 -0.000001 7.156112 7.081547 0.328885 -0.000000 -0.000019 3.000739 -5.000192 7.999044 -0.000103 -19.722514 -177.793362 -1.572582 -179.999991 0.000005 -0.801996 161.824284 -1.969647 -1.176522 -0.000004 -0.000000 0.230900 71.111613 6.571422 2.860465 25.452193 -7.345334 -0.007231 -21.593331 176.105909 1.425923 -0.000004 -0.000005 -0.905852 -22.265182 3.800660 1.437552 -0.000003 0.000006 -0.345864 71.362363 -6.799347 -2.198706 26.706386 7.343502 -0.766448 
50.726200 -8.871874 99.066498 8.362289 0.485163 0.561262 -1.594630 -0.347902 0.225237 0.814886 -0.693480 0.438919 2.459988 -0.688173 0.447196 10.912837 3.827506 1.148159 3.684112 1.800444 0.773317 -14.233007 -63.872091 -16.976807 -45.380187 -121.315170 -42.826447 -0.000001 0.000003 -0.000000 12.950139 -18.976449 2.151935 -0.000000 -0.000014 -3.005770 -5.000143 -7.999272 0.000124 -5.216379 64.666660 6.699629 -35.587628 115.386183 23.522263 -0.000000 0.000000 -0.000000 7.196818 6.999466 0.336215 -0.000000 -0.000019 3.000741 -5.000194 7.999044 -0.000105 -20.098240 -177.901907 -1.626239 -179.999991 0.000005 -0.801996 161.461656 -1.951296 -1.191200 -0.000004 -0.000000 0.241329 71.256065 6.586213 2.813193 25.450063 -7.345327 -0.010366 -22.004989 175.971382 1.347617 -0.000003 -0.000005 -0.905364 -22.671544 3.837313 1.467529 -0.000003 0.000006 -0.354149 71.470396 -6.796289 -2.201015 26.732653 7.343546 -0.768753 
50.717697 -8.806984 99.013390 8.505978 0.554307 0.549828 -1.590790 -0.354815 0.227945 0.822625 -0.708031 0.443067 2.467727 -0.702673 0.451517 10.684282 3.744954 1.158677 3.781873 1.820789 0.774828 -14.299199 -63.908475 -17.054019 -45.449776 -121.371123 -42.626961 -0.000002 0.000003 -0.000001 12.910680 -18.778910 2.101821 0.000001 -0.000016 -3.005770 -5.000142 -7.999271 0.000125 -5.291331 64.516498 6.771982 -35.438201 115.544070 23.330794 0.000000 0.000000 -0.000001 7.237758 6.917524 0.343635 0.000001 -0.000019 3.000739 -5.000193 7.999044 -0.000104 -20.473885 -178.010057 -1.679124 -179.999991 0.000005 -0.801996 161.099533 -1.932932 -1.206667 -0.000004 -0.000000 0.251758 71.400462 6.600860 2.765768 25.447943 -7.345319 -0.013572 -22.416889 175.835106 1.271637 -0.000003 -0.000005 -0.904888 -23.077659 3.873592 1.498117 -0.000004 0.000006 -0.362444 71.578292 -6.793269 -2.203150 26.758729 7.343609 -0.771106 
50.693600 -8.747195 98.947495 8.649495 0.623226 0.537720 -1.586861 -0.361697 0.230613 0.830513 -0.722514 0.447148 2.475613 -0.717105 0.455771 10.455692 3.662571 1.168863 3.879486 1.841354 0.776528 -14.365273 -63.944750 -17.131079 -45.520783 -121.426598 -42.428278 -0.000002 0.000003 -0.000000 12.870485 -18.580894 2.051744 -0.000000 -0.000015 -3.005770 -5.000147 -7.999273 0.000124 -5.367104 64.366542 6.845309 -35.290163 115.703104 23.139981 -0.000000 -0.000000 0.000000 7.278229 6.835370 0.351215 0.000001 -0.000019 3.000740 -5.000193 7.999044 -0.000104 -20.849634 -178.119640 -1.729918 -179.999991 0.000005 -0.801996 160.736508 -1.915483 -1.221275 -0.000004 -0.000000 0.262187 71.545064 6.615191 2.718545 25.445931 -7.345307 -0.016624 -22.828750 175.697150 1.197579 -0.000003 -0.000005 -0.904387 -23.484429 3.909886 1.529254 -0.000003 0.000006 -0.370720 71.686571 -6.790234 -2.205565 26.785103 7.343663 -0.773354 
